  <svg
    className=""
    width={1140}
    viewBox="0 0 1140 1076"
    fill="none"
    xmlns="http://www.w3.org/2000/svg"
    {...props}
  >
    <path
      d="M269 281.819c-6.833 39.667-13.8 129 13 169l4 4.5m0 0c55.333-9.333 179.2-18.9 232 17.5 5.333-2 22.6-4.8 49 0 20.667-17.667 98.9-47.7 246.5-26.5 2 3.5 5.4 13.3 3 24.5-4.5.833-13.9 6.3-15.5 21.5-2 19-7.5 62-18 79s-28.5 25-40.5 28-103 21.5-142-11c-5.667-4.5-21.9-28.1-41.5-86.5-6.833-4-23.5-9-35.5 3-5.667 22.167-21.4 69.9-39 83.5-3.833 4.333-15 14-29 18-34.333 4.333-108.5 7.1-130.5-16.5s-28.5-53.167-29-65c-1.333-14-7-43-19-47v-19.5l9-3Z"
      stroke="#000"
      strokeWidth={4}
      className="svg-elem-1"
    />
    <path
      d="M269 281.819c-6.833 39.667-13.8 129 13 169l4 4.5m0 0c55.333-9.333 179.2-18.9 232 17.5 5.333-2 22.6-4.8 49 0 20.667-17.667 98.9-47.7 246.5-26.5 2 3.5 5.4 13.3 3 24.5-4.5.833-13.9 6.3-15.5 21.5-2 19-7.5 62-18 79s-28.5 25-40.5 28-103 21.5-142-11c-5.667-4.5-21.9-28.1-41.5-86.5-6.833-4-23.5-9-35.5 3-5.667 22.167-21.4 69.9-39 83.5-3.833 4.333-15 14-29 18-34.333 4.333-108.5 7.1-130.5-16.5s-28.5-53.167-29-65c-1.333-14-7-43-19-47v-19.5l9-3Z"
      stroke="#000"
      strokeWidth={4}
      className="svg-elem-2"
    />
    <path
      d="M330 460.819c-28.4 3.6-29.5 32.166-26.5 46 2 16 10.1 53.5 26.5 75.5 20.5 27.5 95 24.5 131.5 16s45.5-77 46.5-96.5c.8-15.6-12-27.167-18.5-31-36.4-24.8-121.5-17-159.5-10Z"
      stroke="#000"
      strokeWidth={4}
      className="svg-elem-3"
    />
    <path
      d="M330 460.819c-28.4 3.6-29.5 32.166-26.5 46 2 16 10.1 53.5 26.5 75.5 20.5 27.5 95 24.5 131.5 16s45.5-77 46.5-96.5c.8-15.6-12-27.167-18.5-31-36.4-24.8-121.5-17-159.5-10Z"
      stroke="#000"
      strokeWidth={4}
      className="svg-elem-4"
    />
    <path
      d="M606.5 463.319c-30.4 4.8-32 34.333-29 47.5 6.8 70.8 54.5 89.166 77.5 89.5 81.6 4.8 112.667-18 118-30 15.667-34.667 34.1-106.6-17.5-117-51.6-10.4-120.833 2.333-149 10Z"
      stroke="#000"
      strokeWidth={4}
      className="svg-elem-5"
    />
    <path
      d="M606.5 463.319c-30.4 4.8-32 34.333-29 47.5 6.8 70.8 54.5 89.166 77.5 89.5 81.6 4.8 112.667-18 118-30 15.667-34.667 34.1-106.6-17.5-117-51.6-10.4-120.833 2.333-149 10Z"
      stroke="#000"
      strokeWidth={4}
      className="svg-elem-6"
    />
    <path
      d="M304.5 558.819c-.807 32.816 6.621 77.14 11.16 94.448 1.345 18.52 12.003 70.929 43.877 132.408 31.874 61.479 102.716 126.35 134.152 151.101 15.13 7.789 59.613 19.732 116.501 5.193 56.889-14.539 123.226-92.946 149.283-130.331 64.151-87.234 71.783-266.894 67.58-345.819.185-2 .443-6.3 0-7.5"
      stroke="#000"
      strokeWidth={4}
      className="svg-elem-7"
    />
    <path
      d="M304.5 558.819c-.807 32.816 6.621 77.14 11.16 94.448 1.345 18.52 12.003 70.929 43.877 132.408 31.874 61.479 102.716 126.35 134.152 151.101 15.13 7.789 59.613 19.732 116.501 5.193 56.889-14.539 123.226-92.946 149.283-130.331 64.151-87.234 71.783-266.894 67.58-345.819.185-2 .443-6.3 0-7.5"
      stroke="#000"
      strokeWidth={4}
      className="svg-elem-8"
    />
    <path
      d="M328 714.319c-16 28.833-41.8 103.9-17 173.5 24.8 69.6 78.667 111.333 102.5 123.501 19.833 12.5 60 39.9 62 49.5"
      stroke="#000"
      strokeWidth={4}
      className="svg-elem-9"
    />
    <path
      d="M328 714.319c-16 28.833-41.8 103.9-17 173.5 24.8 69.6 78.667 111.333 102.5 123.501 19.833 12.5 60 39.9 62 49.5"
      stroke="#000"
      strokeWidth={4}
      className="svg-elem-10"
    />
    <path
      d="M502 564.819c-.667 10.333-5.7 33.4-20.5 43-6.167 8.667-16 28.3-6 37.5m41.5 12.5c-2.833-5.833-11.6-15.9-24-9.5m63 32.5c6.333-2.667 19.6-11.5 22-25.5 2-4 8.2-12.3 17-13.5 4.833-1 15.3-1.1 18.5 6.5m-9-56.5c7 8.167 28.5 32 22.5 46"
      stroke="#000"
      strokeWidth={4}
      className="svg-elem-11"
    />
    <path
      d="M502 564.819c-.667 10.333-5.7 33.4-20.5 43-6.167 8.667-16 28.3-6 37.5m41.5 12.5c-2.833-5.833-11.6-15.9-24-9.5m63 32.5c6.333-2.667 19.6-11.5 22-25.5 2-4 8.2-12.3 17-13.5 4.833-1 15.3-1.1 18.5 6.5m-9-56.5c7 8.167 28.5 32 22.5 46"
      stroke="#000"
      strokeWidth={4}
      className="svg-elem-12"
    />
    <path
      d="M320.5 682.319c-16.833 28.167-51.4 92.9-55 126.5-3.6 33.6 6.167 86.333 11.5 108.5 4.833 15.333 47.5 75.5 54.5 81"
      stroke="#000"
      strokeWidth={4}
      className="svg-elem-13"
    />
    <path
      d="M320.5 682.319c-16.833 28.167-51.4 92.9-55 126.5-3.6 33.6 6.167 86.333 11.5 108.5 4.833 15.333 47.5 75.5 54.5 81"
      stroke="#000"
      strokeWidth={4}
      className="svg-elem-14"
    />
    <path
      d="M391 1030.82c1.5 2.5 28 4 41 31.5"
      stroke="#000"
      strokeWidth={4}
      className="svg-elem-15"
    />
    <path
      d="M391 1030.82c1.5 2.5 28 4 41 31.5"
      stroke="#000"
      strokeWidth={4}
      className="svg-elem-16"
    />
    <path
      d="M293 733.319c-12.167 31.833-21 117-5 155 0 3 11.5 62.5 44 88.5"
      stroke="#000"
      strokeWidth={4}
      className="svg-elem-17"
    />
    <path
      d="M293 733.319c-12.167 31.833-21 117-5 155 0 3 11.5 62.5 44 88.5"
      stroke="#000"
      strokeWidth={4}
      className="svg-elem-18"
    />
    <path
      d="M269 281.819c-5.334-5.5-16-17.8-16-23 0-5.2 14-18.167 21-24-5.334 1.333-17 1.2-21-10s4.333-47.667 9-64.5c49.833-57.333 174.3-168.7 273.5-155.5 32.833-5.833 112.8-6.5 170 37.5s103.5 101 119.5 124l16.5 29.5c1 4.167 1.7 13.8-3.5 19-5.2 5.2 5.166 11.167 11 13.5 4.666 16.333 12.6 53.1 7 69.5s-9.334 68.833-10.5 93c-4.5 20.5-14.2 62.4-17 66-2.8 3.6-3.5-17.167-3.5-28h-12.5l-10 15.5"
      stroke="#000"
      strokeWidth={4}
      className="svg-elem-19"
    />
    <path
      d="M269 281.819c-5.334-5.5-16-17.8-16-23 0-5.2 14-18.167 21-24-5.334 1.333-17 1.2-21-10s4.333-47.667 9-64.5c49.833-57.333 174.3-168.7 273.5-155.5 32.833-5.833 112.8-6.5 170 37.5s103.5 101 119.5 124l16.5 29.5c1 4.167 1.7 13.8-3.5 19-5.2 5.2 5.166 11.167 11 13.5 4.666 16.333 12.6 53.1 7 69.5s-9.334 68.833-10.5 93c-4.5 20.5-14.2 62.4-17 66-2.8 3.6-3.5-17.167-3.5-28h-12.5l-10 15.5"
      stroke="#000"
      strokeWidth={4}
      className="svg-elem-20"
    />
    <path
      d="m813.5 446.819 11-17.5m-8 41 11-13"
      stroke="#000"
      strokeWidth={4}
      className="svg-elem-21"
    />
    <path
      d="m813.5 446.819 11-17.5m-8 41 11-13"
      stroke="#000"
      strokeWidth={4}
      className="svg-elem-22"
    />
    <path
      d="M316.5 465.319c-11.6 15.6-19.5 42.5 10 107 2 6.5 12.5 20.8 38.5 26 26 5.2 65.5 3.833 82 2.5"
      stroke="#000"
      strokeWidth={4}
      className="svg-elem-23"
    />
    <path
      d="M316.5 465.319c-11.6 15.6-19.5 42.5 10 107 2 6.5 12.5 20.8 38.5 26 26 5.2 65.5 3.833 82 2.5"
      stroke="#000"
      strokeWidth={4}
      className="svg-elem-24"
    />
    <path
      d="M594.5 467.319c-7.508 10.097-15.142 26.395-10.103 52.5m142.103 76c-16.5 1.333-52.5 4.7-78.5-.5s-35-16-42-23.5c-3.894-6.509-7.207-12.669-10.005-18.5m-11.598-33.5s7.386 5.5 10.103 10.5c4.297 7.909 1.495 23 1.495 23m-11.598-33.5c1.881 9.739 5.525 20.843 11.598 33.5"
      stroke="#000"
      strokeWidth={4}
      className="svg-elem-25"
    />
    <path
      d="M594.5 467.319c-7.508 10.097-15.142 26.395-10.103 52.5m142.103 76c-16.5 1.333-52.5 4.7-78.5-.5s-35-16-42-23.5c-3.894-6.509-7.207-12.669-10.005-18.5m-11.598-33.5s7.386 5.5 10.103 10.5c4.297 7.909 1.495 23 1.495 23m-11.598-33.5c1.881 9.739 5.525 20.843 11.598 33.5"
      stroke="#000"
      strokeWidth={4}
      className="svg-elem-26"
    />
    <path
      d="m277 458.319 1.5-4.5c11.333-2.667 36.3-7.9 45.5-7.5 24.5-3 84.2-7 127 1s62.167 18.333 66.5 22.5c6.5-2.167 25.2-5.2 48 0 15.167-11.333 62.8-33.7 132-32.5 26-1 84.2-.2 105 5"
      stroke="#000"
      strokeWidth={4}
      className="svg-elem-27"
    />
    <path
      d="m277 458.319 1.5-4.5c11.333-2.667 36.3-7.9 45.5-7.5 24.5-3 84.2-7 127 1s62.167 18.333 66.5 22.5c6.5-2.167 25.2-5.2 48 0 15.167-11.333 62.8-33.7 132-32.5 26-1 84.2-.2 105 5"
      stroke="#000"
      strokeWidth={4}
      className="svg-elem-28"
    />
    <path
      d="M403.5 476.315c-9.249 2.931-18.718 8.302-28 17.004 15.333 15.833 56 38 96 0-6.776-6.352-18.142-13.78-31.912-17.5m-36.088.496c-4 7.668-7.9 24.904 8.5 32.504 16.4 7.6 27.167-3.167 30.5-9.5 1.558-4.667 3.158-15.9-2.912-23.5m-36.088.496c12.811-4.06 25.201-3.437 36.088-.496m-17.588 0c-6 1.167-16.1 6.6-8.5 19 7.6 12.4 16.833 3.167 20.5-3 .833-5.125-.4-15.499-12-16Z"
      stroke="#000"
      strokeWidth={4}
      className="svg-elem-29"
    />
    <path
      d="M403.5 476.315c-9.249 2.931-18.718 8.302-28 17.004 15.333 15.833 56 38 96 0-6.776-6.352-18.142-13.78-31.912-17.5m-36.088.496c-4 7.668-7.9 24.904 8.5 32.504 16.4 7.6 27.167-3.167 30.5-9.5 1.558-4.667 3.158-15.9-2.912-23.5m-36.088.496c12.811-4.06 25.201-3.437 36.088-.496m-17.588 0c-6 1.167-16.1 6.6-8.5 19 7.6 12.4 16.833 3.167 20.5-3 .833-5.125-.4-15.499-12-16Z"
      stroke="#000"
      strokeWidth={4}
      className="svg-elem-30"
    />
    <path
      d="M654.301 495.69c-9.6-8-4-18 0-22 2.5-2.167 9.1-5.2 15.5 0s4.666 13.833 3 17.5c-2.167 4.833-8.9 12.5-18.5 4.5Z"
      stroke="#000"
      strokeWidth={4}
      className="svg-elem-31"
    />
    <path
      d="M654.301 495.69c-9.6-8-4-18 0-22 2.5-2.167 9.1-5.2 15.5 0s4.666 13.833 3 17.5c-2.167 4.833-8.9 12.5-18.5 4.5Z"
      stroke="#000"
      strokeWidth={4}
      className="svg-elem-32"
    />
    <path
      d="M641.5 471.819c-5 6.667-10.3 23.4 8.5 33 18.8 9.6 30.167-6.667 33.5-16 .667-4.5 1-16.8-5-20"
      stroke="#000"
      strokeWidth={4}
      className="svg-elem-33"
    />
    <path
      d="M641.5 471.819c-5 6.667-10.3 23.4 8.5 33 18.8 9.6 30.167-6.667 33.5-16 .667-4.5 1-16.8-5-20"
      stroke="#000"
      strokeWidth={4}
      className="svg-elem-34"
    />
    <path
      d="M707 490.319c-29.6 44.4-82 21.5-104.5 4.5 40.5-39.5 90.5-25 99.5-19 7.2 4.8 6.333 11.667 5 14.5Z"
      stroke="#000"
      strokeWidth={4}
      className="svg-elem-35"
    />
    <path
      d="M707 490.319c-29.6 44.4-82 21.5-104.5 4.5 40.5-39.5 90.5-25 99.5-19 7.2 4.8 6.333 11.667 5 14.5Z"
      stroke="#000"
      strokeWidth={4}
      className="svg-elem-36"
    />
    <path
      d="M714 481.819c4.167.5 14 4 20 14m-58-39c10.436-1.333 33.847.1 44 16.5m-131 29c2.667 7.833 13.8 27.1 37 41.5"
      stroke="#000"
      strokeWidth={4}
      className="svg-elem-37"
    />
    <path
      d="M714 481.819c4.167.5 14 4 20 14m-58-39c10.436-1.333 33.847.1 44 16.5m-131 29c2.667 7.833 13.8 27.1 37 41.5"
      stroke="#000"
      strokeWidth={4}
      className="svg-elem-38"
    />
    <path
      d="M624.5 482.819c-2.333 5-5 17.1 3 25.5"
      stroke="#000"
      strokeWidth={4}
      className="svg-elem-39"
    />
    <path
      d="M624.5 482.819c-2.333 5-5 17.1 3 25.5"
      stroke="#000"
      strokeWidth={4}
      className="svg-elem-40"
    />
    <path
      d="M469.5 531.819c-5.5 9.833-24.5 30.2-56.5 33m64-53.5c-10.667 9.833-40.4 29.5-74 29.5"
      stroke="#000"
      strokeWidth={4}
      className="svg-elem-41"
    />
    <path
      d="M469.5 531.819c-5.5 9.833-24.5 30.2-56.5 33m64-53.5c-10.667 9.833-40.4 29.5-74 29.5"
      stroke="#000"
      strokeWidth={4}
      className="svg-elem-42"
    />
    <path
      d="M365.5 489.819c-2.167-5.834-1.5-12 11.5-19 9-4.167 28.7-10.4 33.5-8m68 38c5.667-2.334 13.3-8.9-1.5-16.5m96.5-33.5c0-2.5 39.5-41.5 128-45.5 12.167 1.333 37.8 4.7 43 7.5-44.4-6.4-131 27.5-148.5 38-14.4 6.912-21 2.88-22.5 0Z"
      stroke="#000"
      strokeWidth={4}
      className="svg-elem-43"
    />
    <path
      d="M365.5 489.819c-2.167-5.834-1.5-12 11.5-19 9-4.167 28.7-10.4 33.5-8m68 38c5.667-2.334 13.3-8.9-1.5-16.5m96.5-33.5c0-2.5 39.5-41.5 128-45.5 12.167 1.333 37.8 4.7 43 7.5-44.4-6.4-131 27.5-148.5 38-14.4 6.912-21 2.88-22.5 0Z"
      stroke="#000"
      strokeWidth={4}
      className="svg-elem-44"
    />
    <path
      d="M333 433.789c102.728-19.769 155.47 1.849 169 15.129 0 8.876-19.68 3.698-29.52 0-2.361-8.876-93.971-13.784-139.48-15.129Z"
      stroke="#000"
      strokeWidth={4}
      className="svg-elem-45"
    />
    <path
      d="M333 433.789c102.728-19.769 155.47 1.849 169 15.129 0 8.876-19.68 3.698-29.52 0-2.361-8.876-93.971-13.784-139.48-15.129Z"
      stroke="#000"
      strokeWidth={4}
      className="svg-elem-46"
    />
    <path
      d="M589.5 667.819c3.167.667 11.4-.3 19-9.5"
      stroke="#000"
      strokeWidth={4}
      className="svg-elem-47"
    />
    <path
      d="M589.5 667.819c3.167.667 11.4-.3 19-9.5"
      stroke="#000"
      strokeWidth={4}
      className="svg-elem-48"
    />
    <path
      d="M480 749.819c19.167-1.333 48.9-3.409 62.5 6.191 6.167.667 19.8 1 25-3 2.956-2.274 19.373-4.015 34-4.691m0 0c17.536-.81 36.592 0 38.5 0 2.8 0-24.667-.27-38.5 0Z"
      stroke="#000"
      strokeWidth={4}
      className="svg-elem-49"
    />
    <path
      d="M480 749.819c19.167-1.333 48.9-3.409 62.5 6.191 6.167.667 19.8 1 25-3 2.956-2.274 19.373-4.015 34-4.691m0 0c17.536-.81 36.592 0 38.5 0 2.8 0-24.667-.27-38.5 0Z"
      stroke="#000"
      strokeWidth={4}
      className="svg-elem-50"
    />
    <path
      d="m622 748.819-5 10c-2.8 5.6-13.833 15.667-19 20-9.2 9.6-39.833 9.333-54 8-18 5.6-56.5-17.333-73.5-29.5l-6-4.5 15.5-3"
      stroke="#000"
      strokeWidth={4}
      className="svg-elem-51"
    />
    <path
      d="m622 748.819-5 10c-2.8 5.6-13.833 15.667-19 20-9.2 9.6-39.833 9.333-54 8-18 5.6-56.5-17.333-73.5-29.5l-6-4.5 15.5-3"
      stroke="#000"
      strokeWidth={4}
      className="svg-elem-52"
    />
    <path
      d="M464 752.819c12.667-9.5 47-24.9 83-10.5 1.5 1 5.6 2.1 10-1.5 15.667-7.667 53.8-17.3 81 5.5l2.5 2"
      stroke="#000"
      strokeWidth={4}
      className="svg-elem-53"
    />
    <path
      d="M464 752.819c12.667-9.5 47-24.9 83-10.5 1.5 1 5.6 2.1 10-1.5 15.667-7.667 53.8-17.3 81 5.5l2.5 2"
      stroke="#000"
      strokeWidth={4}
      className="svg-elem-54"
    />
    <path
      d="M438 751.819c0-.5-2.5 9 2.5 13m10-24c-.833 4.833-1.6 15 2 17m-10-17c-1.333 5.833-2.1 18.4 5.5 22m11.5-47.5c-2.667 7.667-6.1 23.9 1.5 27.5m10-23.5c-.833 4.5-1.6 14.3 2 17.5m-25-14c-1.167 2.667-2.3 9.2 2.5 14m33-34c.5 2-6.5 25 3 29.5m10.5-18.5c-1.5.833-3.4 3.7 1 8.5"
      stroke="#000"
      strokeWidth={4}
      className="svg-elem-55"
    />
    <path
      d="M438 751.819c0-.5-2.5 9 2.5 13m10-24c-.833 4.833-1.6 15 2 17m-10-17c-1.333 5.833-2.1 18.4 5.5 22m11.5-47.5c-2.667 7.667-6.1 23.9 1.5 27.5m10-23.5c-.833 4.5-1.6 14.3 2 17.5m-25-14c-1.167 2.667-2.3 9.2 2.5 14m33-34c.5 2-6.5 25 3 29.5m10.5-18.5c-1.5.833-3.4 3.7 1 8.5"
      stroke="#000"
      strokeWidth={4}
      className="svg-elem-56"
    />
    <path
      d="M572 682.819c-1.333 6.5-2.3 21.9 4.5 31.5 1 2 2.7 6.3 1.5 7.5m-57-34c2.5 5.833 6.2 20 1 30-.667 1.5-1.4 4.9 1 6.5"
      stroke="#000"
      strokeWidth={4}
      className="svg-elem-57"
    />
    <path
      d="M572 682.819c-1.333 6.5-2.3 21.9 4.5 31.5 1 2 2.7 6.3 1.5 7.5m-57-34c2.5 5.833 6.2 20 1 30-.667 1.5-1.4 4.9 1 6.5"
      stroke="#000"
      strokeWidth={4}
      className="svg-elem-58"
    />
    <path
      d="M536 692.819c-1.667 4.167-4 13.7 0 18.5 4 4.8 4.333 9.333 4 11m21.5-29.5c-.5 0 6 14.5 3 18.5-2.4 3.2-1 8.667 0 11"
      stroke="#000"
      strokeWidth={4}
      className="svg-elem-59"
    />
    <path
      d="M536 692.819c-1.667 4.167-4 13.7 0 18.5 4 4.8 4.333 9.333 4 11m21.5-29.5c-.5 0 6 14.5 3 18.5-2.4 3.2-1 8.667 0 11"
      stroke="#000"
      strokeWidth={4}
      className="svg-elem-60"
    />
    <path
      d="M549.5 704.819c-.5 1-3 8.5 0 9.5"
      stroke="#000"
      strokeWidth={4}
      className="svg-elem-61"
    />
    <path
      d="M549.5 704.819c-.5 1-3 8.5 0 9.5"
      stroke="#000"
      strokeWidth={4}
      className="svg-elem-62"
    />
    <path
      d="M513 699.319c1 6 2.4 19.3 0 24.5m75.966-31.5c2.667 8 6.4 24.5 0 26.5m23.723-19.5c.667 4.833.7 15.5-4.5 19.5m20.667-16.5c.334 6 .3 18.7-2.5 21.5m22.889-12.5c2.834 5 6.8 15.8 0 19m22.358-11.5c2.333 7-5.6 26.4 0 24m8.397-8c-2.667 4-6.4 12.6 0 15m-7-38.5c5.5 8.167 15.9 25.9 13.5 31.5"
      stroke="#000"
      strokeWidth={4}
      className="svg-elem-63"
    />
    <path
      d="M513 699.319c1 6 2.4 19.3 0 24.5m75.966-31.5c2.667 8 6.4 24.5 0 26.5m23.723-19.5c.667 4.833.7 15.5-4.5 19.5m20.667-16.5c.334 6 .3 18.7-2.5 21.5m22.889-12.5c2.834 5 6.8 15.8 0 19m22.358-11.5c2.333 7-5.6 26.4 0 24m8.397-8c-2.667 4-6.4 12.6 0 15m-7-38.5c5.5 8.167 15.9 25.9 13.5 31.5"
      stroke="#000"
      strokeWidth={4}
      className="svg-elem-64"
    />
    <path
      d="M637.5 690.319c0 1 6 22.5 3 28m-21.5-6.5c-1.333 3.333-3.4 10.5-1 12.5m-18-40c.5.5 10.5 24 4 27.5"
      stroke="#000"
      strokeWidth={4}
      className="svg-elem-65"
    />
    <path
      d="M637.5 690.319c0 1 6 22.5 3 28m-21.5-6.5c-1.333 3.333-3.4 10.5-1 12.5m-18-40c.5.5 10.5 24 4 27.5"
      stroke="#000"
      strokeWidth={4}
      className="svg-elem-66"
    />
    <path
      d="M544.5 755.819c-.667 2.667-1.6 8.5 0 10.5m9-10.5c-.667 2.167-1.8 6.7-1 7.5m14.5-9.5c.167 2.833.1 8.9-1.5 10.5m-39-13.5c-1 3.167-2.6 10.1-1 12.5m-34.5-14c.333 1 1.5 3 3.5 3m58-9c1.167 2.167 2.6 7-1 9"
      stroke="#000"
      strokeWidth={4}
      className="svg-elem-67"
    />
    <path
      d="M544.5 755.819c-.667 2.667-1.6 8.5 0 10.5m9-10.5c-.667 2.167-1.8 6.7-1 7.5m14.5-9.5c.167 2.833.1 8.9-1.5 10.5m-39-13.5c-1 3.167-2.6 10.1-1 12.5m-34.5-14c.333 1 1.5 3 3.5 3m58-9c1.167 2.167 2.6 7-1 9"
      stroke="#000"
      strokeWidth={4}
      className="svg-elem-68"
    />
    <path
      d="M552.19 794.819c4.448 10.389 9.147 20.514 3.81 26m-30.494-25c-2.224.623 1.994 12.169 2.994 19.5m46-19.5c2.038 7.065 3.392 11.013-1.5 16m-8.5-14c.741 9.558 2.125 22.188-5 26.5m-16.204-26.383c2.223 10.805 2.668 27.398 0 33.383m7.227-25.279c1.853 11.428-1.023 19.207 1.667 20.779m-22.237-23.273c.556 2.494 6.659 10.786 5.547 15.773m34.48-15.773c-.927 5.403-1.704 14.778.52 16.773m-37.5-24.5c0 1 5.118 16 7 17"
      stroke="#000"
      strokeWidth={4}
      className="svg-elem-69"
    />
    <path
      d="M552.19 794.819c4.448 10.389 9.147 20.514 3.81 26m-30.494-25c-2.224.623 1.994 12.169 2.994 19.5m46-19.5c2.038 7.065 3.392 11.013-1.5 16m-8.5-14c.741 9.558 2.125 22.188-5 26.5m-16.204-26.383c2.223 10.805 2.668 27.398 0 33.383m7.227-25.279c1.853 11.428-1.023 19.207 1.667 20.779m-22.237-23.273c.556 2.494 6.659 10.786 5.547 15.773m34.48-15.773c-.927 5.403-1.704 14.778.52 16.773m-37.5-24.5c0 1 5.118 16 7 17"
      stroke="#000"
      strokeWidth={4}
      className="svg-elem-70"
    />
    <path
      d="M388 805.319c-2.167 5.5-5.2 17.6 0 22m25 10.5c-1.167 3.5-2.8 11.6 0 16m11-2.5c-1.667-1.167-3.7-.6 1.5 11m13.5 6.5c-.833 6.333-1.4 19.5 3 21.5m18.5-18c-1.333 3.333-2.8 11.6 2 18m21-9.5c-2 7.5-4.5 23 1.5 25m19 10.5c-3.667 1.833-8.5 7.4 1.5 15m27.5-10c1.5 5.333 3.9 16.8 1.5 20m16-27c2.667 6 7.4 19.3 5 24.5m30-24.5c2.167 3.167 5.6 11 2 17m15-28.5c3.667 5 9.9 17.1 5.5 25.5m-37-22.5c2.667 7.667 7.2 24 4 28m-26.5-47.5c1.333.167 3.2 2.7 0 11.5m2-61.5c.667 1 1.6 3.9 0 7.5m-8-7.5c-2 0-5.4 1.5-3 7.5m9 2c-.833 1.833-2.5 6.3-2.5 9.5m0 9c1.167 2.333 2.8 7.8 0 11m9.5-6.5c1.5 2 3.9 7.8 1.5 15m-33.5 2.5c-2.5 4.667-6.3 15.4-1.5 21m17.5-19c1.667 4.5 4 14.6 0 19m25-15c-2.667 4.333-7.2 13.9-4 17.5m29-12c4 2.667 10.8 9.3 6 14.5m43.5-27.5c.167 6 1 18 3 18m-19.5 8c1.833 6.5 5.1 20.2 3.5 23m-9-21.5c0 2 3 12 1.5 14-1.2 1.6-.5 9 0 12.5m38.5-56c1 2 10 14 8 17m10.5-16c2.833 1.667 8.1 6.1 6.5 10.5m-28.5 8.5c1.833 2.5 5.3 8.1 4.5 10.5m-19-2.5c0 3.5.6 11 3 13m-23.5-40c2.5 5 8.8 15.4 14 17m-27-16c1.5 5 5.6 15.6 10 18m70.5-44.5c6.167 5.167 17.7 15.8 14.5 17m13-29.5c1 2 6 17 3 18.5m2-32.5c2.5 3.5 7.1 11.2 5.5 14m-31.5 3c5.167 3.667 15 11.9 13 15.5m-35 4.5c5.167 4.5 16.5 13.3 20.5 12.5m-15.5-23c1.833 3.167 6.1 9.7 8.5 10.5m-28.5-7.5c3.333 3.5 9.7 11 8.5 13m68.5-62c2.5 4.167 7.2 13 6 15m14-40c.5 2 5 13 3.5 16m-9.5 1.5c3.167 3.667 9.5 11.6 9.5 14m-25.5 10.5c1.333 2.5 3.6 8.2 2 11m-33.5-4.5c2.167 1 6.5 4 6.5 8m44.5-84.5c7.333 8.167 21.1 25.2 17.5 28m-2.5-38c3 3 8.6 10.2 7 15m4-21.5c2.5 3.5 6.9 11.7 4.5 16.5m-9.5 12c2.333 2 6.6 6.7 5 9.5m-27-7c3.333 1.5 9.7 5.4 8.5 9m-19 7.5c2.5-.167 7.1.6 5.5 5m16.5 0c1.333.667 3.8 2.6 3 5m-27 0c1.833.167 5.4 2.3 5 9.5m-19.5 7.5c1.333 1.333 4 4.8 4 8m43-108c1.333.5 3.6 4.4 2 16m15.5-43c3.5 2.833 9.6 11 6 21m6-52c3 5.5 8.8 18.4 8 26m-12.5-13.5c0 1 7.5 20.5 6 30m-19.5 5c2.5 4.833 7.2 15.7 6 20.5m0 14c.667 1.5 1.6 6.2 0 13m-21.5-23.5c0 1 5.5 8.5 4 12m34-107c3.5 7.333 9.8 23.4 7 29m1.5-53.5c1.167 1.5 3.3 6.5 2.5 14.5m2.5-40c.833 4 2 13.7 0 20.5m-15 15c1 1.5 2.7 5.3 1.5 8.5m8.5 7.5c.833 0 2.5 1.2 2.5 6m-23-2c2 2 5.4 8 3 16m-13.5 22c1.5 3.5 3.6 11.2 0 14m-9.5 12c0 1.5 5.451 9.5 3 15m-17.5 23.5c.723 3.5 1.735 11.5 0 15.5M472 899.819c-.5 5.167-.6 16.1 3 18.5m-22-39c-1.833 1.333-4 5.8 2 13m-9-30c-1.167 1-2.8 4.4 0 10m-14-18.5c-1.333 5.333-3.2 17.1 0 21.5m-16-31.5c-1.167 1.5-2.8 5.9 0 11.5m-7.5-28c-1.333 1.833-3.6 6.8-2 12m-6-5.5c-.667 3-1.6 9.6 0 12m-3-31c0 1.5-5 12-2.5 15.5m-3.5-15.5c-1 2.667-2.7 8.6-1.5 11m-19-41.5c.5 2.5-3.465 11.5 5.5 21m5.5-6c-2.092 2.667-5.322 8.9-1.5 12.5m-15-38.5c-.333 4.333-.5 14.3 1.5 19.5m-11.5-36.5c-.167 5.333.2 17.2 3 22m-7.5-26.5c0 1-4.5 8 0 13m-10-32.5c1 2.5 1 7.5 3.5 13.5m-10-29c0 3-5 5.5 0 11.5"
      stroke="#000"
      strokeWidth={4}
      className="svg-elem-71"
    />
    <path
      d="M388 805.319c-2.167 5.5-5.2 17.6 0 22m25 10.5c-1.167 3.5-2.8 11.6 0 16m11-2.5c-1.667-1.167-3.7-.6 1.5 11m13.5 6.5c-.833 6.333-1.4 19.5 3 21.5m18.5-18c-1.333 3.333-2.8 11.6 2 18m21-9.5c-2 7.5-4.5 23 1.5 25m19 10.5c-3.667 1.833-8.5 7.4 1.5 15m27.5-10c1.5 5.333 3.9 16.8 1.5 20m16-27c2.667 6 7.4 19.3 5 24.5m30-24.5c2.167 3.167 5.6 11 2 17m15-28.5c3.667 5 9.9 17.1 5.5 25.5m-37-22.5c2.667 7.667 7.2 24 4 28m-26.5-47.5c1.333.167 3.2 2.7 0 11.5m2-61.5c.667 1 1.6 3.9 0 7.5m-8-7.5c-2 0-5.4 1.5-3 7.5m9 2c-.833 1.833-2.5 6.3-2.5 9.5m0 9c1.167 2.333 2.8 7.8 0 11m9.5-6.5c1.5 2 3.9 7.8 1.5 15m-33.5 2.5c-2.5 4.667-6.3 15.4-1.5 21m17.5-19c1.667 4.5 4 14.6 0 19m25-15c-2.667 4.333-7.2 13.9-4 17.5m29-12c4 2.667 10.8 9.3 6 14.5m43.5-27.5c.167 6 1 18 3 18m-19.5 8c1.833 6.5 5.1 20.2 3.5 23m-9-21.5c0 2 3 12 1.5 14-1.2 1.6-.5 9 0 12.5m38.5-56c1 2 10 14 8 17m10.5-16c2.833 1.667 8.1 6.1 6.5 10.5m-28.5 8.5c1.833 2.5 5.3 8.1 4.5 10.5m-19-2.5c0 3.5.6 11 3 13m-23.5-40c2.5 5 8.8 15.4 14 17m-27-16c1.5 5 5.6 15.6 10 18m70.5-44.5c6.167 5.167 17.7 15.8 14.5 17m13-29.5c1 2 6 17 3 18.5m2-32.5c2.5 3.5 7.1 11.2 5.5 14m-31.5 3c5.167 3.667 15 11.9 13 15.5m-35 4.5c5.167 4.5 16.5 13.3 20.5 12.5m-15.5-23c1.833 3.167 6.1 9.7 8.5 10.5m-28.5-7.5c3.333 3.5 9.7 11 8.5 13m68.5-62c2.5 4.167 7.2 13 6 15m14-40c.5 2 5 13 3.5 16m-9.5 1.5c3.167 3.667 9.5 11.6 9.5 14m-25.5 10.5c1.333 2.5 3.6 8.2 2 11m-33.5-4.5c2.167 1 6.5 4 6.5 8m44.5-84.5c7.333 8.167 21.1 25.2 17.5 28m-2.5-38c3 3 8.6 10.2 7 15m4-21.5c2.5 3.5 6.9 11.7 4.5 16.5m-9.5 12c2.333 2 6.6 6.7 5 9.5m-27-7c3.333 1.5 9.7 5.4 8.5 9m-19 7.5c2.5-.167 7.1.6 5.5 5m16.5 0c1.333.667 3.8 2.6 3 5m-27 0c1.833.167 5.4 2.3 5 9.5m-19.5 7.5c1.333 1.333 4 4.8 4 8m43-108c1.333.5 3.6 4.4 2 16m15.5-43c3.5 2.833 9.6 11 6 21m6-52c3 5.5 8.8 18.4 8 26m-12.5-13.5c0 1 7.5 20.5 6 30m-19.5 5c2.5 4.833 7.2 15.7 6 20.5m0 14c.667 1.5 1.6 6.2 0 13m-21.5-23.5c0 1 5.5 8.5 4 12m34-107c3.5 7.333 9.8 23.4 7 29m1.5-53.5c1.167 1.5 3.3 6.5 2.5 14.5m2.5-40c.833 4 2 13.7 0 20.5m-15 15c1 1.5 2.7 5.3 1.5 8.5m8.5 7.5c.833 0 2.5 1.2 2.5 6m-23-2c2 2 5.4 8 3 16m-13.5 22c1.5 3.5 3.6 11.2 0 14m-9.5 12c0 1.5 5.451 9.5 3 15m-17.5 23.5c.723 3.5 1.735 11.5 0 15.5M472 899.819c-.5 5.167-.6 16.1 3 18.5m-22-39c-1.833 1.333-4 5.8 2 13m-9-30c-1.167 1-2.8 4.4 0 10m-14-18.5c-1.333 5.333-3.2 17.1 0 21.5m-16-31.5c-1.167 1.5-2.8 5.9 0 11.5m-7.5-28c-1.333 1.833-3.6 6.8-2 12m-6-5.5c-.667 3-1.6 9.6 0 12m-3-31c0 1.5-5 12-2.5 15.5m-3.5-15.5c-1 2.667-2.7 8.6-1.5 11m-19-41.5c.5 2.5-3.465 11.5 5.5 21m5.5-6c-2.092 2.667-5.322 8.9-1.5 12.5m-15-38.5c-.333 4.333-.5 14.3 1.5 19.5m-11.5-36.5c-.167 5.333.2 17.2 3 22m-7.5-26.5c0 1-4.5 8 0 13m-10-32.5c1 2.5 1 7.5 3.5 13.5m-10-29c0 3-5 5.5 0 11.5"
      stroke="#000"
      strokeWidth={4}
      className="svg-elem-72"
    />
    <path
      d="M508.5 881.319c-4.333 2.667-11.4 10.4-5 20m17 15c-2.667 6.5-6.4 20 0 22m47.5-2.5c1.5 3.667 3.6 11.3 0 12.5m22.5-15c1.333 3.667 3.6 11.4 2 13m-48.5-10.5c2.333 4.167 6.3 12.5 3.5 12.5m-20.5-12.5c-.5 3.5-.7 10.5 2.5 10.5m-17.5-13c-1.167 2.333-2.8 7.6 0 10m-18.5-31c-2.833 1.333-7.3 5.7-2.5 12.5m44.5-53c-2.833 6.167-6.8 20.2 0 27m41-8.5c4 6 10.8 18.8 6 22m-70.5-11c-2.349 3.667-5.638 11.8 0 15m200.5-95c1.667 8.833 4 26.6 0 27"
      stroke="#000"
      strokeWidth={4}
      className="svg-elem-73"
    />
    <path
      d="M508.5 881.319c-4.333 2.667-11.4 10.4-5 20m17 15c-2.667 6.5-6.4 20 0 22m47.5-2.5c1.5 3.667 3.6 11.3 0 12.5m22.5-15c1.333 3.667 3.6 11.4 2 13m-48.5-10.5c2.333 4.167 6.3 12.5 3.5 12.5m-20.5-12.5c-.5 3.5-.7 10.5 2.5 10.5m-17.5-13c-1.167 2.333-2.8 7.6 0 10m-18.5-31c-2.833 1.333-7.3 5.7-2.5 12.5m44.5-53c-2.833 6.167-6.8 20.2 0 27m41-8.5c4 6 10.8 18.8 6 22m-70.5-11c-2.349 3.667-5.638 11.8 0 15m200.5-95c1.667 8.833 4 26.6 0 27"
      stroke="#000"
      strokeWidth={4}
      className="svg-elem-74"
    />
    <path
      d="M304 348.319c-7.833 16.667-22.2 52.9-17 64.5m3.5-78c-3.5 9-11.478 47-8 58m36.5-161.5c-2.5 3-28.5 34-28.5 58m19.5-71c-6-9-39-53.5-15-82.5m40-33c-11.667 15.166-28 53.8 0 87m46.5-102c-13.333 10-37.3 37.2-26.5 66m20-51c-6.5 9.166-15.6 32.2 0 51m22.5-60c-4.667 9.166-12.6 30.4-7 42m90.5-103.5c-34 13.5-96.6 56-75 118m-15.5-84.5c-3.833 1.46-12.3 7.105-15.5 18m-4.5-18c-9.118 10.5-26.282 36.8-22 58m-44.5 6.5c-3.5 6.5-8.4 22.5 0 34.5m-39.5-5.5c-4.167 19.333-7.3 55.9 13.5 47.5m21 29c-14 5-42 16.8-42 24m250-91c-5.5-4-45-24.5-35.5-66m-16.5 12.5c.167 19.5 9.9 60.5 47.5 68.5m43.5-53.5c-21.833-25.167-46.8-78.1 28-88.5 24.167 1 76.8 8.8 94 32 17.2 23.2 65.833 29 88 29m-186.5 43.5c0-5.5 10-37.5-3-55m47 55c3.833-9 9.2-31.2 0-48m-51.5-21c0-3.5 17.5-33.5 89 6.5m82.5 85c10.667-5.5 36.4-14 54-4m7 58.5c20.833 13.666 61.7 44.3 58.5 57.5m-356.5-239c22.667-11.334 86-28.2 158-5m25.5 29c10.5 11.333 36.9 32.8 58.5 28m-328.5-37c7.667-14 37.8-44.1 97-52.5"
      stroke="#000"
      strokeWidth={4}
      className="svg-elem-75"
    />
    <path
      d="M304 348.319c-7.833 16.667-22.2 52.9-17 64.5m3.5-78c-3.5 9-11.478 47-8 58m36.5-161.5c-2.5 3-28.5 34-28.5 58m19.5-71c-6-9-39-53.5-15-82.5m40-33c-11.667 15.166-28 53.8 0 87m46.5-102c-13.333 10-37.3 37.2-26.5 66m20-51c-6.5 9.166-15.6 32.2 0 51m22.5-60c-4.667 9.166-12.6 30.4-7 42m90.5-103.5c-34 13.5-96.6 56-75 118m-15.5-84.5c-3.833 1.46-12.3 7.105-15.5 18m-4.5-18c-9.118 10.5-26.282 36.8-22 58m-44.5 6.5c-3.5 6.5-8.4 22.5 0 34.5m-39.5-5.5c-4.167 19.333-7.3 55.9 13.5 47.5m21 29c-14 5-42 16.8-42 24m250-91c-5.5-4-45-24.5-35.5-66m-16.5 12.5c.167 19.5 9.9 60.5 47.5 68.5m43.5-53.5c-21.833-25.167-46.8-78.1 28-88.5 24.167 1 76.8 8.8 94 32 17.2 23.2 65.833 29 88 29m-186.5 43.5c0-5.5 10-37.5-3-55m47 55c3.833-9 9.2-31.2 0-48m-51.5-21c0-3.5 17.5-33.5 89 6.5m82.5 85c10.667-5.5 36.4-14 54-4m7 58.5c20.833 13.666 61.7 44.3 58.5 57.5m-356.5-239c22.667-11.334 86-28.2 158-5m25.5 29c10.5 11.333 36.9 32.8 58.5 28m-328.5-37c7.667-14 37.8-44.1 97-52.5"
      stroke="#000"
      strokeWidth={4}
      className="svg-elem-76"
    />
    <path
      d="M512 22.819c24.167-10.333 85.4-26.5 137-8.5"
      stroke="#000"
      strokeWidth={4}
      className="svg-elem-77"
    />
    <path
      d="M512 22.819c24.167-10.333 85.4-26.5 137-8.5"
      stroke="#000"
      strokeWidth={4}
      className="svg-elem-78"
    />
    <path
      d="M535 194.819c-2.667-12.5-7.2-40-4-50m40.5 35c5.833-8.5 17.3-27.8 16.5-37m-134 42.5c-1-5.5-12.5-18-2-52m61.5 0c-2.5-3-24-12-12-42.5m29.5 37c-3.5-6-29-14.5-12.5-64m-91 14.5c14.642-7 48.241-18.9 65.5-10.5m-125.5 127c-11.5 1.333-33.2-9.1-28-61.5m-20.5 152c-3 3.5-17.5 19.5-19.5 47"
      stroke="#000"
      strokeWidth={4}
      className="svg-elem-79"
    />
    <path
      d="M535 194.819c-2.667-12.5-7.2-40-4-50m40.5 35c5.833-8.5 17.3-27.8 16.5-37m-134 42.5c-1-5.5-12.5-18-2-52m61.5 0c-2.5-3-24-12-12-42.5m29.5 37c-3.5-6-29-14.5-12.5-64m-91 14.5c14.642-7 48.241-18.9 65.5-10.5m-125.5 127c-11.5 1.333-33.2-9.1-28-61.5m-20.5 152c-3 3.5-17.5 19.5-19.5 47"
      stroke="#000"
      strokeWidth={4}
      className="svg-elem-80"
    />
    <path
      d="M686 165.819c6.167-3.167 19.9-15.2 25.5-38m-3.5 45.5c11.667-8.333 34-29.5 30-47.5m-85 39c10.333-14.167 31.4-44.7 33-53.5m-65.5 59.5c11.333-15.333 34.2-49.6 35-64m-63 37c-3.333-5.167-9.2-19.8-6-37m-77.5 39.5c-9.667-3.333-28.5-15.9-26.5-39.5m-53 44c-3.833-15.333-5.2-49.3 20-62.5m-52 95c-7-.333-19.4-8.7-13-39.5m13-58c8.833-18 38.8-55.1 88-59.5m-173.5 104c-1.333-1.5-1.5-9.1 8.5-27.5"
      stroke="#000"
      strokeWidth={4}
      className="svg-elem-81"
    />
    <path
      d="M686 165.819c6.167-3.167 19.9-15.2 25.5-38m-3.5 45.5c11.667-8.333 34-29.5 30-47.5m-85 39c10.333-14.167 31.4-44.7 33-53.5m-65.5 59.5c11.333-15.333 34.2-49.6 35-64m-63 37c-3.333-5.167-9.2-19.8-6-37m-77.5 39.5c-9.667-3.333-28.5-15.9-26.5-39.5m-53 44c-3.833-15.333-5.2-49.3 20-62.5m-52 95c-7-.333-19.4-8.7-13-39.5m13-58c8.833-18 38.8-55.1 88-59.5m-173.5 104c-1.333-1.5-1.5-9.1 8.5-27.5"
      stroke="#000"
      strokeWidth={4}
      className="svg-elem-82"
    />
    <path
      d="M810 300.319c9.667 6.5 29.2 27 30 57m-19 17.5c1.5 1.5 15 34 9.5 52m-25.5-80.5c9.5 3.333 29.4 14.3 33 31.5m-59.5-114.5c15.333 1.667 49.9 15.3 65.5 56.5m-30.5 7.5c6.167 5.333 19.7 20.3 24.5 37.5m2 49c.333-9.5-2.1-31.3-14.5-42.5m-12 34.5c4.167 2.833 12 11.4 10 23"
      stroke="#000"
      strokeWidth={4}
      className="svg-elem-83"
    />
    <path
      d="M810 300.319c9.667 6.5 29.2 27 30 57m-19 17.5c1.5 1.5 15 34 9.5 52m-25.5-80.5c9.5 3.333 29.4 14.3 33 31.5m-59.5-114.5c15.333 1.667 49.9 15.3 65.5 56.5m-30.5 7.5c6.167 5.333 19.7 20.3 24.5 37.5m2 49c.333-9.5-2.1-31.3-14.5-42.5m-12 34.5c4.167 2.833 12 11.4 10 23"
      stroke="#000"
      strokeWidth={4}
      className="svg-elem-84"
    />
    <path
      d="M756.5 202.819c10.167-11 37.4-24.9 65 7.5m-56 0c12.667-6.833 41.6-14.8 56 8m-46 7.5c5.333-6 18.6-15.3 29-4.5m-57-37c11.667-11 41.6-24.9 68 7.5m-59-39.5c4.5-10.667 15.2-28 22-12m-107-98c2.5 1 38 3 66 39m-23.5 65c1.5-2 19-11.5 9.5-35m-40 29c4.5-3.667 14.5-14 18.5-26m-42.5 10c6.833-5.833 18.8-20.9 12-34.5m-68.5 50.5c-3-5.5-15.5-41 0-54.5m-160.5-20c3-2 24-23.5 42.5-23.5"
      stroke="#000"
      strokeWidth={4}
      className="svg-elem-85"
    />
    <path
      d="M756.5 202.819c10.167-11 37.4-24.9 65 7.5m-56 0c12.667-6.833 41.6-14.8 56 8m-46 7.5c5.333-6 18.6-15.3 29-4.5m-57-37c11.667-11 41.6-24.9 68 7.5m-59-39.5c4.5-10.667 15.2-28 22-12m-107-98c2.5 1 38 3 66 39m-23.5 65c1.5-2 19-11.5 9.5-35m-40 29c4.5-3.667 14.5-14 18.5-26m-42.5 10c6.833-5.833 18.8-20.9 12-34.5m-68.5 50.5c-3-5.5-15.5-41 0-54.5m-160.5-20c3-2 24-23.5 42.5-23.5"
      stroke="#000"
      strokeWidth={4}
      className="svg-elem-86"
    />
    <path
      d="M423 870.319c0 2-14.5 30 36.5 103 11.667 18.5 36.2 56.101 41 58.501 10.167-9.67 37-31.6 63-42.001 12.333-7.333 41.7-25.7 60.5-40.5 9.833-8 30.9-26.9 32.5-30.5"
      stroke="#000"
      strokeWidth={4}
      className="svg-elem-87"
    />
    <path
      d="M423 870.319c0 2-14.5 30 36.5 103 11.667 18.5 36.2 56.101 41 58.501 10.167-9.67 37-31.6 63-42.001 12.333-7.333 41.7-25.7 60.5-40.5 9.833-8 30.9-26.9 32.5-30.5"
      stroke="#000"
      strokeWidth={4}
      className="svg-elem-88"
    />
    <path
      d="M824 589.819c9.167-8.834 35.5-22.3 67.5-5.5 12.576 6.602 20.308 16.516 25 27.084m-31 155.416c22-35 37-102 37-104.5 0-1.714 4.23-27.871-6-50.916m0 0c24.167 10.472 70.3 44.416 61.5 96.416-4.5 12.833-12.6 41.7-9 54.5m0 0c-3.14 11.833-5.736 39 9 53m-9-53c8.936 3.032 26.795 14.467 29.703 36.5m-6.203 30c4-10.8 6-22.5 6.5-27a46.729 46.729 0 0 0-.297-3m0 0c14.437-.667 50.297 2.4 78.297 20s29.67 21 27 20.5"
      stroke="#000"
      strokeWidth={4}
      className="svg-elem-89"
    />
    <path
      d="M824 589.819c9.167-8.834 35.5-22.3 67.5-5.5 12.576 6.602 20.308 16.516 25 27.084m-31 155.416c22-35 37-102 37-104.5 0-1.714 4.23-27.871-6-50.916m0 0c24.167 10.472 70.3 44.416 61.5 96.416-4.5 12.833-12.6 41.7-9 54.5m0 0c-3.14 11.833-5.736 39 9 53m-9-53c8.936 3.032 26.795 14.467 29.703 36.5m-6.203 30c4-10.8 6-22.5 6.5-27a46.729 46.729 0 0 0-.297-3m0 0c14.437-.667 50.297 2.4 78.297 20s29.67 21 27 20.5"
      stroke="#000"
      strokeWidth={4}
      className="svg-elem-90"
    />
    <path
      d="M992.5 828.819c4.667 25.667-3.3 125.4-50.5 167-47.2 41.601-95.667 68.331-114 76.501"
      stroke="#000"
      strokeWidth={4}
      className="svg-elem-91"
    />
    <path
      d="M992.5 828.819c4.667 25.667-3.3 125.4-50.5 167-47.2 41.601-95.667 68.331-114 76.501"
      stroke="#000"
      strokeWidth={4}
      className="svg-elem-92"
    />
    <path
      d="M833.5 598.319c24.333-6.5 64.3 1.4 29.5 85"
      stroke="#000"
      strokeWidth={4}
      className="svg-elem-93"
    />
    <path
      d="M833.5 598.319c24.333-6.5 64.3 1.4 29.5 85"
      stroke="#000"
      strokeWidth={4}
      className="svg-elem-94"
    />
    <path
      d="M821.5 611.319c13.167-5.834 39.8-10.8 41 16 1.2 26.8-22.833 78.833-35 101.5-20 26.833-63.2 83.1-76 93.5"
      stroke="#000"
      strokeWidth={4}
      className="svg-elem-95"
    />
    <path
      d="M821.5 611.319c13.167-5.834 39.8-10.8 41 16 1.2 26.8-22.833 78.833-35 101.5-20 26.833-63.2 83.1-76 93.5"
      stroke="#000"
      strokeWidth={4}
      className="svg-elem-96"
    />
    <path
      d="M823.5 849.819c-38.667 28-120.2 99-137 159.001M939 859.819c-6 7-161 118.5-158 184.501"
      stroke="#000"
      strokeWidth={4}
      className="svg-elem-97"
    />
    <path
      d="M823.5 849.819c-38.667 28-120.2 99-137 159.001M939 859.819c-6 7-161 118.5-158 184.501"
      stroke="#000"
      strokeWidth={4}
      className="svg-elem-98"
    />
    <path
      d="M195.064 884.074c-20.989 46.22-57.971 146.276-37.988 176.746M270 790.819c-50.131 5.371-215.252 47.009-234.5 148C18.154 977.553 16.57 1035.33 2 1048.61"
      stroke="#000"
      strokeWidth={4}
      className="svg-elem-99"
    />
    <path
      d="M195.064 884.074c-20.989 46.22-57.971 146.276-37.988 176.746M270 790.819c-50.131 5.371-215.252 47.009-234.5 148C18.154 977.553 16.57 1035.33 2 1048.61"
      stroke="#000"
      strokeWidth={4}
      className="svg-elem-100"
    />
    <path
      d="M102.5 879.819c-1 4-50.5 170.001-61 188.001m0-64c0 5-4.5 57-17.5 70.5"
      stroke="#000"
      strokeWidth={4}
      className="svg-elem-101"
    />
    <path
      d="M102.5 879.819c-1 4-50.5 170.001-61 188.001m0-64c0 5-4.5 57-17.5 70.5"
      stroke="#000"
      strokeWidth={4}
      className="svg-elem-102"
    />
    <path
      d="M272.5 969.819c-1.333 17.167-6.5 56.701-16.5 77.501"
      stroke="#000"
      strokeWidth={4}
      className="svg-elem-103"
    />
    <path
      d="M272.5 969.819c-1.333 17.167-6.5 56.701-16.5 77.501"
      stroke="#000"
      strokeWidth={4}
      className="svg-elem-104"
    />
    <path
      d="M1041 878.819c11-3 34.5-4.3 40.5 14.5s40.83 29.833 57.5 33"
      stroke="#000"
      strokeWidth={4}
      className="svg-elem-105"
    />
    <path
      d="M1041 878.819c11-3 34.5-4.3 40.5 14.5s40.83 29.833 57.5 33"
      stroke="#000"
      strokeWidth={4}
      className="svg-elem-106"
    />
    <path
      d="M339.5 804.319c-5.667 7-12.3 31.4 6.5 73"
      stroke="#000"
      strokeWidth={4}
      className="svg-elem-107"
    />
    <path
      d="M339.5 804.319c-5.667 7-12.3 31.4 6.5 73"
      stroke="#000"
      strokeWidth={4}
      className="svg-elem-108"
    />
    <path
      d="M522 1072.82c1.5-7 8.7-23.6 25.5-34 16.8-10.4 48.667-45.334 62.5-61.501"
      stroke="#000"
      strokeWidth={4}
      className="svg-elem-109"
    />
    <path
      d="M522 1072.82c1.5-7 8.7-23.6 25.5-34 16.8-10.4 48.667-45.334 62.5-61.501"
      stroke="#000"
      strokeWidth={4}
      className="svg-elem-110"
    />
    <path
      d="M391.5 1030.82c-8.667-3.5-21-12-30.5-19.5s-17.98-7.92-29.5-13.001m0-22c2.167 2 7.7 6.5 12.5 8.5 11.52 7.615 20.5 10.5 29.5 19.501 9 9 42.5 19.7 48.5 26.5 11.833 11 34.5 33.4 30.5 35"
      stroke="#000"
      strokeWidth={4}
      className="svg-elem-111"
    />
    <path
      d="M391.5 1030.82c-8.667-3.5-21-12-30.5-19.5s-17.98-7.92-29.5-13.001m0-22c2.167 2 7.7 6.5 12.5 8.5 11.52 7.615 20.5 10.5 29.5 19.501 9 9 42.5 19.7 48.5 26.5 11.833 11 34.5 33.4 30.5 35"
      stroke="#000"
      strokeWidth={4}
      className="svg-elem-112"
    />
    <path
      d="M620 968.819c21.667-18.5 69.4-60.4 87-80"
      stroke="#000"
      strokeWidth={4}
      className="svg-elem-113"
    />
    <path
      d="M620 968.819c21.667-18.5 69.4-60.4 87-80"
      stroke="#000"
      strokeWidth={4}
      className="svg-elem-114"
    />
  </svg>
